<svg version="1.1" xmlns="http://www.w3.org/2000/svg" viewBox="0 0 379.3332824707031 260.66664123535156" width="379.3332824707031" height="260.66664123535156">
  <!-- svg-source:excalidraw -->
  
  <defs>
    <style class="style-fonts">
      @font-face {
        font-family: "Virgil";
        src: url("https://excalidraw.com/Virgil.woff2");
      }
      @font-face {
        font-family: "Cascadia";
        src: url("https://excalidraw.com/Cascadia.woff2");
      }
    </style>
    
  </defs>
  <g stroke-linecap="round" transform="translate(10 112.00001525878906) rotate(0 26.666656494140625 26.666656494140625)"><path d="M21.34 -0.21 C26.53 -1.7, 33.02 -0.56, 38.13 2.28 C43.23 5.11, 49.76 11.49, 51.96 16.82 C54.16 22.15, 53.14 28.99, 51.33 34.26 C49.52 39.54, 45.89 45.28, 41.11 48.47 C36.34 51.67, 28.3 53.93, 22.7 53.44 C17.09 52.94, 11.11 49.86, 7.48 45.48 C3.85 41.1, 1.34 33, 0.89 27.18 C0.45 21.36, 0.93 15.11, 4.81 10.57 C8.68 6.03, 20.05 1.44, 24.14 -0.05 C28.23 -1.53, 29.01 1.11, 29.34 1.66 M32.83 1.47 C38.34 2.58, 45.37 7.79, 48.83 12.2 C52.29 16.62, 54.08 22.6, 53.59 27.95 C53.09 33.31, 49.98 39.88, 45.87 44.33 C41.75 48.79, 34.83 54.14, 28.89 54.68 C22.94 55.21, 15.07 51.28, 10.22 47.56 C5.36 43.84, 1.21 37.92, -0.26 32.36 C-1.74 26.79, -1.24 19.16, 1.39 14.16 C4.01 9.16, 9.93 4.62, 15.47 2.35 C21.01 0.08, 31.67 0.48, 34.62 0.53 C37.57 0.59, 33.32 2.43, 33.17 2.68" stroke="#8e30eb" stroke-width="1" fill="none"></path></g><g stroke-linecap="round" transform="translate(150.66665649414062 19.333343505859375) rotate(0 26.666656494140625 26.666656494140625)"><path d="M15.37 1.35 C20.28 -0.89, 29.64 -0.23, 35.13 1.49 C40.61 3.21, 45.26 7.07, 48.29 11.69 C51.32 16.32, 53.94 23.42, 53.29 29.23 C52.64 35.03, 48.52 42.37, 44.4 46.52 C40.27 50.67, 34.03 53.99, 28.55 54.13 C23.06 54.27, 16.24 50.9, 11.47 47.35 C6.7 43.79, 1.54 38.3, -0.05 32.82 C-1.64 27.33, -1.06 19.5, 1.94 14.45 C4.93 9.4, 14.81 4.56, 17.9 2.5 C20.99 0.43, 20.26 1.89, 20.49 2.06 M32.37 1.32 C37.95 1.82, 44.41 4.88, 47.97 9.04 C51.53 13.19, 53.96 20.09, 53.72 26.23 C53.48 32.37, 50.59 41.54, 46.54 45.86 C42.49 50.18, 35.25 51.76, 29.41 52.15 C23.56 52.54, 16.35 51.26, 11.48 48.22 C6.62 45.17, 1.79 39.12, 0.19 33.86 C-1.4 28.6, -0.57 21.85, 1.9 16.67 C4.37 11.49, 10.04 5.26, 15.02 2.78 C19.99 0.3, 28.8 2.32, 31.75 1.79 C34.7 1.26, 32.87 -0.57, 32.72 -0.39" stroke="#8e30eb" stroke-width="1" fill="none"></path></g><g stroke-linecap="round" transform="translate(292.6665954589844 104.00004577636719) rotate(0 26.666656494140625 26.666656494140625)"><path d="M16.56 2.58 C21.42 0.13, 27.97 -0.83, 33.37 0.59 C38.78 2.02, 45.77 6.25, 49 11.14 C52.22 16.02, 53.3 23.97, 52.74 29.9 C52.17 35.84, 49.53 42.97, 45.62 46.76 C41.71 50.56, 35.19 52.41, 29.28 52.67 C23.38 52.94, 15.09 51.64, 10.17 48.35 C5.25 45.06, 1.01 38.33, -0.22 32.92 C-1.44 27.5, -0.54 21.08, 2.81 15.87 C6.16 10.67, 16.55 4.26, 19.88 1.68 C23.21 -0.91, 22.74 0.12, 22.79 0.37 M31.77 -0.69 C37.2 -0.4, 43.98 3.55, 47.57 8.37 C51.16 13.18, 53.58 22.45, 53.31 28.22 C53.04 33.99, 49.81 39.05, 45.93 42.99 C42.05 46.92, 35.68 50.89, 30.03 51.82 C24.39 52.75, 16.83 51.25, 12.09 48.55 C7.34 45.84, 3.15 40.82, 1.57 35.57 C-0.01 30.31, 0.7 22.18, 2.62 17.04 C4.54 11.91, 8.17 7.76, 13.09 4.75 C18.01 1.73, 29.22 -0.36, 32.14 -1.04 C35.05 -1.72, 30.72 -0.07, 30.57 0.66" stroke="#8e30eb" stroke-width="1" fill="none"></path></g><g stroke-linecap="round" transform="translate(315.9999694824219 10) rotate(0 26.666656494140625 26.666656494140625)"><path d="M16.02 1.43 C20.85 -1.07, 29.68 -1.3, 35.16 0.62 C40.64 2.54, 45.83 7.84, 48.9 12.96 C51.96 18.07, 54.17 25.81, 53.57 31.31 C52.97 36.81, 49.77 42.25, 45.3 45.95 C40.84 49.64, 32.78 53.23, 26.76 53.49 C20.75 53.76, 13.55 50.92, 9.19 47.53 C4.83 44.13, 1.48 38.6, 0.62 33.11 C-0.23 27.62, 1.11 19.96, 4.06 14.61 C7.02 9.25, 15.77 3.22, 18.33 0.97 C20.89 -1.27, 19.29 0.6, 19.41 1.14 M33.78 -0.39 C39.06 1.08, 45.32 7.94, 48.38 12.65 C51.44 17.37, 52.81 22.62, 52.16 27.89 C51.51 33.16, 48.53 40.23, 44.51 44.26 C40.49 48.29, 33.53 51.35, 28.03 52.06 C22.54 52.76, 15.88 51.62, 11.53 48.5 C7.18 45.39, 3.51 38.64, 1.93 33.36 C0.36 28.07, -0.26 22.18, 2.07 16.8 C4.41 11.43, 10.86 3.82, 15.95 1.11 C21.04 -1.59, 29.71 0.47, 32.64 0.57 C35.56 0.67, 33.61 1.03, 33.52 1.7" stroke="#8e30eb" stroke-width="1" fill="none"></path></g><g stroke-linecap="round" transform="translate(124.66665649414062 197.3333282470703) rotate(0 26.666656494140625 26.666656494140625)"><path d="M31.03 -0.38 C36.5 0.28, 42.58 4.96, 46.38 9.54 C50.18 14.11, 53.53 21.51, 53.84 27.07 C54.15 32.63, 52.04 38.55, 48.24 42.87 C44.43 47.2, 36.91 51.86, 30.99 53.02 C25.07 54.19, 17.59 52.52, 12.73 49.88 C7.86 47.24, 3.55 42.42, 1.82 37.19 C0.09 31.96, 0.41 24.16, 2.36 18.5 C4.31 12.84, 8.06 6.22, 13.49 3.25 C18.93 0.27, 30.84 0.65, 34.95 0.65 C39.07 0.64, 38.3 2.66, 38.19 3.22 M16.92 3.28 C21.6 1.04, 28.86 -0.91, 34.09 0.49 C39.32 1.88, 45.31 6.81, 48.28 11.65 C51.25 16.49, 52.55 23.68, 51.88 29.5 C51.22 35.32, 48.23 42.65, 44.3 46.56 C40.36 50.46, 34.05 52.57, 28.29 52.93 C22.52 53.29, 14.19 52.48, 9.68 48.73 C5.18 44.99, 2.45 36.32, 1.25 30.46 C0.06 24.61, -0.15 18.33, 2.51 13.61 C5.17 8.89, 14.88 3.84, 17.22 2.16 C19.56 0.48, 16.53 3.28, 16.56 3.51" stroke="#8e30eb" stroke-width="1" fill="none"></path></g><g stroke-linecap="round"><g transform="translate(56 120.66667175292969) rotate(0 47.61197049749552 -29.6198149799323)"><path d="M0.38 -0.9 C16.55 -11.11, 80.2 -50.43, 96.1 -60.47 M-0.88 1.24 C15.16 -8.82, 78.34 -48.61, 94.86 -58.84" stroke="#8e30eb" stroke-width="1" fill="none"></path></g></g><mask></mask><g stroke-linecap="round"><g transform="translate(204.66668701171875 41.33335876464844) rotate(0 56.089089905596325 -3.1673100806772823)"><path d="M-0.56 0.19 C17.79 -0.75, 91.76 -5.6, 110.48 -6.53 M1.34 -0.75 C20.04 -1.45, 94.43 -4.16, 112.74 -5.27" stroke="#8e30eb" stroke-width="1" fill="none"></path></g></g><mask></mask><g stroke-linecap="round"><g transform="translate(48 161.33335876464844) rotate(0 37.77509562745689 24.37436121925714)"><path d="M-0.85 -0.53 C11.97 7.65, 63.43 40.9, 76.41 49.28 M0.9 1.81 C13.65 9.62, 63.03 39.79, 75.67 47.47" stroke="#8e30eb" stroke-width="1" fill="none"></path></g></g><mask></mask><g stroke-linecap="round" transform="translate(231.33328247070312 195.00001525878906) rotate(0 26.666656494140625 26.666656494140625)"><path d="M36.73 2.46 C41.52 4.43, 46.98 9.57, 49.63 14.83 C52.28 20.1, 53.67 28.41, 52.61 34.06 C51.56 39.71, 47.82 45.64, 43.28 48.76 C38.74 51.87, 31.17 53.3, 25.39 52.73 C19.61 52.16, 12.74 49.18, 8.59 45.35 C4.45 41.51, 1.1 35.24, 0.51 29.69 C-0.08 24.14, 2.04 16.77, 5.04 12.04 C8.04 7.32, 12.41 2.46, 18.51 1.32 C24.62 0.18, 36.87 3.95, 41.68 5.2 C46.48 6.45, 47.58 8.57, 47.35 8.8 M16.87 1.75 C22.15 -0.43, 30.71 -1.06, 36.08 0.97 C41.44 3.01, 46.1 9.25, 49.05 13.94 C52 18.63, 54.68 23.72, 53.77 29.11 C52.87 34.51, 47.96 42.24, 43.61 46.33 C39.26 50.42, 33.35 53.25, 27.67 53.65 C21.98 54.05, 14.12 52.46, 9.51 48.73 C4.9 44.99, 1.06 37.11, 0.02 31.23 C-1.03 25.36, 0.59 18.36, 3.21 13.47 C5.84 8.58, 13.45 3.63, 15.76 1.89 C18.07 0.15, 16.77 2.6, 17.08 3.02" stroke="#8e30eb" stroke-width="1" fill="none"></path></g><g stroke-linecap="round"><g transform="translate(198 64.66667175292969) rotate(0 48.836096018208195 27.370894927578092)"><path d="M1 1.04 C16.81 9.79, 79.41 44.49, 95.27 53.12 M0.07 0.54 C16.23 9.37, 81.69 45.37, 97.61 54.2" stroke="#8e30eb" stroke-width="1" fill="none"></path></g></g><mask></mask><g stroke-linecap="round"><g transform="translate(337.33331298828125 63.33335876464844) rotate(0 -4.767671096073514 20.09850413883572)"><path d="M-0.73 -0.88 C-2.52 5.64, -8.23 33.11, -9.79 40.16 M1.09 1.28 C-0.93 8.41, -8.63 34.16, -10.63 41.08" stroke="#8e30eb" stroke-width="1" fill="none"></path></g></g><mask></mask><g stroke-linecap="round"><g transform="translate(303.33331298828125 154.6666717529297) rotate(0 -16.786829495155246 21.234696685024517)"><path d="M0.21 -1.18 C-5.13 5.98, -27.5 34.7, -32.78 42.07 M-1.14 0.82 C-6.59 8.26, -28.7 36.9, -33.78 43.65" stroke="#8e30eb" stroke-width="1" fill="none"></path></g></g><mask></mask></svg>