<svg version="1.1" xmlns="http://www.w3.org/2000/svg" viewBox="0 0 411.6865997314453 285.5" width="411.6865997314453" height="285.5">
  <!-- svg-source:excalidraw -->
  
  <defs>
    <style class="style-fonts">
      @font-face {
        font-family: "Virgil";
        src: url("https://excalidraw.com/Virgil.woff2");
      }
      @font-face {
        font-family: "Cascadia";
        src: url("https://excalidraw.com/Cascadia.woff2");
      }
    </style>
    
  </defs>
  <g stroke-linecap="round" transform="translate(181.99993896484375 102.16664123535156) rotate(0 22.333343505859375 22.333343505859375)"><path d="M11.17 0 M11.17 0 C15.77 0.12, 21.03 0.34, 33.5 0 M11.17 0 C18.85 0.7, 24.46 -0.37, 33.5 0 M33.5 0 C40.12 1.76, 43.32 3.82, 44.67 11.17 M33.5 0 C41.7 -0.77, 43.55 4.58, 44.67 11.17 M44.67 11.17 C44.93 17.86, 42.72 25.44, 44.67 33.5 M44.67 11.17 C45.3 19.19, 44 26.25, 44.67 33.5 M44.67 33.5 C46.59 39.31, 41.31 45.02, 33.5 44.67 M44.67 33.5 C44.01 39.77, 42.56 43.05, 33.5 44.67 M33.5 44.67 C29.89 43.78, 25.72 46.1, 11.17 44.67 M33.5 44.67 C25.96 44.77, 15.63 43.89, 11.17 44.67 M11.17 44.67 C1.85 44.16, 0.83 42.1, 0 33.5 M11.17 44.67 C4.09 45.77, 1.35 42.68, 0 33.5 M0 33.5 C-2.11 25.94, 1.82 18.55, 0 11.17 M0 33.5 C-0.93 24.29, -0.66 15.5, 0 11.17 M0 11.17 C-1.02 4.56, 3.41 -0.97, 11.17 0 M0 11.17 C1.57 3.38, 2.17 1.05, 11.17 0" stroke="#8e30eb" stroke-width="1" fill="none"></path></g><g stroke-linecap="round" transform="translate(182.66653442382812 48.49998474121094) rotate(0 22.333343505859375 22.333343505859375)"><path d="M11.17 0 M11.17 0 C15.37 -0.88, 21.33 -0.17, 33.5 0 M11.17 0 C16.11 0.49, 22.72 0.98, 33.5 0 M33.5 0 C42 1.72, 43.51 3.74, 44.67 11.17 M33.5 0 C41.17 -0.41, 43.54 2.97, 44.67 11.17 M44.67 11.17 C44.51 18.04, 44.55 24.07, 44.67 33.5 M44.67 11.17 C44.26 20.51, 44.73 28.91, 44.67 33.5 M44.67 33.5 C44.63 41.81, 42.09 42.96, 33.5 44.67 M44.67 33.5 C44.48 41.06, 39.85 46.4, 33.5 44.67 M33.5 44.67 C25 45.28, 17.61 43.57, 11.17 44.67 M33.5 44.67 C26.7 45.42, 21.1 44.04, 11.17 44.67 M11.17 44.67 C3.99 45.46, -1.07 42.58, 0 33.5 M11.17 44.67 C1.44 43.32, -0.7 40.03, 0 33.5 M0 33.5 C0.17 25.91, -2 18.74, 0 11.17 M0 33.5 C0.58 26.45, -0.42 18.16, 0 11.17 M0 11.17 C-0.07 3.87, 1.96 -0.09, 11.17 0 M0 11.17 C-1.45 5.96, 1.44 2.21, 11.17 0" stroke="#8e30eb" stroke-width="1" fill="none"></path></g><g stroke-linecap="round" transform="translate(181.83326721191406 210.3332977294922) rotate(0 22.333343505859375 22.333343505859375)"><path d="M11.17 0 M11.17 0 C17.61 0.64, 20.13 -0.42, 33.5 0 M11.17 0 C19.64 0.72, 27.65 -0.88, 33.5 0 M33.5 0 C40.75 -0.12, 46 3.16, 44.67 11.17 M33.5 0 C40.41 -1.87, 45.98 5.85, 44.67 11.17 M44.67 11.17 C43.28 17.37, 45.18 24.91, 44.67 33.5 M44.67 11.17 C44.57 16.46, 44.86 21.36, 44.67 33.5 M44.67 33.5 C44.83 42.75, 40.17 43.01, 33.5 44.67 M44.67 33.5 C42.48 42.83, 42.84 45.43, 33.5 44.67 M33.5 44.67 C23.11 44.22, 16.61 46.09, 11.17 44.67 M33.5 44.67 C25.58 44.03, 17.18 44.4, 11.17 44.67 M11.17 44.67 C1.94 42.88, -1.29 41.58, 0 33.5 M11.17 44.67 C3.26 45.1, 1.26 41.01, 0 33.5 M0 33.5 C1.42 27.77, -0.67 18.88, 0 11.17 M0 33.5 C0.24 26.34, 0.4 20.35, 0 11.17 M0 11.17 C1.2 5.38, 2.14 -0.32, 11.17 0 M0 11.17 C1.35 2.24, 3.9 -1.35, 11.17 0" stroke="#8e30eb" stroke-width="1" fill="none"></path></g><g stroke-linecap="round" transform="translate(182.1665496826172 155.9999542236328) rotate(0 22.333343505859375 22.333343505859375)"><path d="M11.17 0 M11.17 0 C16.74 -0.44, 27.27 -1.55, 33.5 0 M11.17 0 C18.75 -0.94, 27.02 -0.25, 33.5 0 M33.5 0 C42.28 -0.56, 44.2 2.1, 44.67 11.17 M33.5 0 C42.26 2.12, 45.31 5.14, 44.67 11.17 M44.67 11.17 C44.88 15.33, 43.42 20.43, 44.67 33.5 M44.67 11.17 C44.96 18.82, 44.75 28.97, 44.67 33.5 M44.67 33.5 C43.89 39.29, 39.04 46.31, 33.5 44.67 M44.67 33.5 C46.56 41.71, 43.22 44.76, 33.5 44.67 M33.5 44.67 C28.72 46.15, 22.97 45.25, 11.17 44.67 M33.5 44.67 C24.89 44.15, 17.36 43.61, 11.17 44.67 M11.17 44.67 C2.43 45.3, -0.4 41.32, 0 33.5 M11.17 44.67 C4.99 44.73, 0.22 42.56, 0 33.5 M0 33.5 C-0.69 24.51, -0.1 15.54, 0 11.17 M0 33.5 C0.21 26.47, 0.59 19.46, 0 11.17 M0 11.17 C-1.58 3.4, 4.89 -1.29, 11.17 0 M0 11.17 C0.18 2.38, 1.93 0.75, 11.17 0" stroke="#8e30eb" stroke-width="1" fill="none"></path></g><g stroke-linecap="round" transform="translate(18 126.16665649414062) rotate(0 19.666671752929688 19.666671752929688)"><path d="M15.65 0.09 C19.51 -1.38, 24.74 -0.78, 28.54 1.16 C32.33 3.11, 36.6 7.83, 38.43 11.77 C40.27 15.71, 40.83 20.82, 39.55 24.8 C38.26 28.78, 34.48 33.23, 30.72 35.64 C26.97 38.05, 21.08 39.57, 17 39.24 C12.91 38.92, 9.13 36.72, 6.22 33.69 C3.31 30.66, 0.06 25.46, -0.46 21.06 C-0.98 16.66, -0.2 10.95, 3.09 7.29 C6.39 3.63, 15.64 0.24, 19.3 -0.92 C22.96 -2.08, 25.03 -0.02, 25.05 0.32 M27.8 1.54 C31.53 2.95, 36.73 7.79, 38.49 11.77 C40.26 15.74, 39.58 21.14, 38.38 25.4 C37.17 29.66, 34.9 35.15, 31.25 37.32 C27.59 39.49, 20.52 39.32, 16.45 38.44 C12.39 37.56, 9.73 35.11, 6.86 32.03 C3.98 28.96, -0.19 24.25, -0.78 19.99 C-1.38 15.73, 0.84 9.52, 3.27 6.48 C5.71 3.44, 9.66 2.28, 13.84 1.76 C18.01 1.25, 25.95 3.07, 28.33 3.4 C30.7 3.72, 28.11 3.81, 28.08 3.72" stroke="#8e30eb" stroke-width="1" fill="none"></path></g><g transform="translate(10 166.16668701171875) rotate(0 32.77996826171875 12.5)"><text x="0" y="0" font-family="Virgil, Segoe UI Emoji" font-size="20px" fill="#8e30eb" text-anchor="start" style="white-space: pre;" direction="ltr" dominant-baseline="text-before-edge">author</text></g><g stroke-linecap="round" transform="translate(347.88665771484375 119) rotate(0 19.666671752929688 19.666671752929688)"><path d="M15.93 0 C19.77 -1.18, 25.62 -0.96, 29.29 1.13 C32.95 3.21, 36.51 8.54, 37.94 12.51 C39.38 16.49, 39.18 21.17, 37.91 25 C36.65 28.82, 33.83 32.97, 30.37 35.47 C26.91 37.96, 21.32 40.34, 17.15 39.95 C12.98 39.57, 8.25 36.27, 5.37 33.14 C2.49 30.02, 0.27 25.46, -0.13 21.21 C-0.54 16.96, -0.11 11.15, 2.93 7.65 C5.97 4.16, 14.76 1.46, 18.13 0.24 C21.5 -0.98, 22.89 0.04, 23.16 0.36 M11.83 1.46 C15.63 -0.32, 22.88 0.19, 27.07 1.74 C31.27 3.3, 34.83 7.08, 37.01 10.79 C39.19 14.49, 40.93 20.28, 40.16 23.96 C39.39 27.65, 35.55 30.33, 32.38 32.91 C29.22 35.48, 25.49 39.14, 21.2 39.43 C16.9 39.72, 9.95 37.38, 6.6 34.65 C3.25 31.91, 1.67 27.14, 1.09 23.03 C0.5 18.93, 1.23 13.62, 3.06 10.04 C4.89 6.47, 10.39 2.87, 12.07 1.6 C13.74 0.32, 13.14 2.14, 13.11 2.41" stroke="#8e30eb" stroke-width="1" fill="none"></path></g><g transform="translate(337.88665771484375 159.66668701171875) rotate(0 31.89997100830078 12.5)"><text x="0" y="0" font-family="Virgil, Segoe UI Emoji" font-size="20px" fill="#8e30eb" text-anchor="start" style="white-space: pre;" direction="ltr" dominant-baseline="text-before-edge">reader</text></g><g stroke-linecap="round" transform="translate(156.6666259765625 30.166656494140625) rotate(0 48 122.66667175292969)"><path d="M24 0 M24 0 C44.19 1.73, 58.94 -0.71, 72 0 M24 0 C40.78 -0.65, 56.12 -0.2, 72 0 M72 0 C89.02 0.74, 97.72 7.21, 96 24 M72 0 C88.54 -1.09, 96.65 6.19, 96 24 M96 24 C94.47 65.81, 95.34 107.6, 96 221.33 M96 24 C95.28 99.26, 95.06 176.28, 96 221.33 M96 221.33 C97.87 235.69, 87.33 245.8, 72 245.33 M96 221.33 C95.82 239.13, 85.82 244.1, 72 245.33 M72 245.33 C54.12 245.34, 38.4 245.64, 24 245.33 M72 245.33 C60.68 245.34, 48.85 245.74, 24 245.33 M24 245.33 C8.64 246.98, -0.28 238.8, 0 221.33 M24 245.33 C7.13 243.41, 1.28 239.45, 0 221.33 M0 221.33 C-0.5 150.72, -2.05 82.4, 0 24 M0 221.33 C-0.64 146.48, 0.63 71.28, 0 24 M0 24 C0.8 6.6, 6.24 -1.43, 24 0 M0 24 C2.1 9.35, 6.25 -0.53, 24 0" stroke="#868e96" stroke-width="1" fill="none"></path></g><g transform="translate(158.6666259765625 10) rotate(0 47.82396697998047 10)"><text x="0" y="0" font-family="Virgil, Segoe UI Emoji" font-size="16px" fill="#868e96" text-anchor="start" style="white-space: pre;" direction="ltr" dominant-baseline="text-before-edge">nostr relays</text></g><g stroke-linecap="round"><g transform="translate(60.66668701171875 140.83334350585938) rotate(0 60.54625455265864 -36.61240094653334)"><path d="M0.73 0.87 C20.55 -10.98, 99.46 -59.83, 119.16 -72.21 M-0.34 0.28 C19.84 -11.83, 101.16 -61.96, 121.44 -74.1" stroke="#8e30eb" stroke-width="1" fill="none"></path></g></g><mask></mask><g stroke-linecap="round"><g transform="translate(58.6666259765625 144.83334350585938) rotate(0 59.154927489254646 -10.35703849755231)"><path d="M0.17 0.78 C19.98 -2.87, 99.8 -17.88, 119.51 -21.49 M-1.2 0.14 C18.47 -3.35, 99.21 -16.18, 119 -20.03" stroke="#8e30eb" stroke-width="1" fill="none"></path></g></g><mask></mask><g stroke-linecap="round"><g transform="translate(60 150.83334350585938) rotate(0 56.798575706547126 12.438958568358771)"><path d="M-0.7 -1.13 C18 3.14, 93 20.42, 112.18 24.77 M1.14 0.9 C20.19 5.38, 95.45 21.81, 114.29 26" stroke="#8e30eb" stroke-width="1" fill="none"></path></g></g><mask></mask><g stroke-linecap="round"><g transform="translate(60 154.83331298828125) rotate(0 56.98460689777511 37.467277344819195)"><path d="M0.24 0.16 C19.41 12.7, 95.95 63.43, 115.06 75.74 M-1.09 -0.81 C17.88 11.39, 94.8 61.55, 113.96 74.18" stroke="#8e30eb" stroke-width="1" fill="none"></path></g></g><mask></mask><g stroke-linecap="round"><g transform="translate(233.33331298828125 68.16665649414062) rotate(0 54.23859416792163 32.17344253126532)"><path d="M-1.13 -0.01 C16.83 10.61, 89.14 53.43, 107.5 64.14 M0.48 -1.06 C18.81 9.67, 91.61 54.33, 109.6 65.4" stroke="#8e30eb" stroke-width="1" fill="none"></path></g></g><mask></mask><g stroke-linecap="round"><g transform="translate(233.33331298828125 123.5) rotate(0 54.47808821238573 7.896665333295232)"><path d="M-0.8 0.69 C17.62 3.36, 91.59 13.43, 109.76 15.79 M0.98 0.01 C19.4 2.33, 91.68 11.25, 109.38 13.9" stroke="#8e30eb" stroke-width="1" fill="none"></path></g></g><mask></mask><g stroke-linecap="round"><g transform="translate(232 178.83334350585938) rotate(0 54.40947306714952 -20.1922473784536)"><path d="M-0.68 -0.18 C17.55 -6.97, 90.85 -33.73, 109.5 -40.21 M1.17 -1.32 C19.19 -8.02, 89.97 -33.09, 108.28 -39.13" stroke="#8e30eb" stroke-width="1" fill="none"></path></g></g><mask></mask><g stroke-linecap="round"><g transform="translate(234.6666259765625 228.83334350585938) rotate(0 53.52505179739558 -43.324521477576354)"><path d="M-0.62 -0.69 C16.82 -14.93, 87.6 -71.91, 105.32 -86.52 M1.26 1.57 C19.02 -12.91, 90.43 -73.36, 107.67 -88.22" stroke="#8e30eb" stroke-width="1" fill="none"></path></g></g><mask></mask></svg>