<svg version="1.1" xmlns="http://www.w3.org/2000/svg" viewBox="0 0 450.0001220703125 252.29913896318521" width="450.0001220703125" height="252.29913896318521">
  <!-- svg-source:excalidraw -->
  
  <defs>
    <style class="style-fonts">
      @font-face {
        font-family: "Virgil";
        src: url("https://excalidraw.com/Virgil.woff2");
      }
      @font-face {
        font-family: "Cascadia";
        src: url("https://excalidraw.com/Cascadia.woff2");
      }
    </style>
    
  </defs>
  <g stroke-linecap="round" transform="translate(10 10.96579545732584) rotate(0 215.00006103515625 115.66667175292969)"><path d="M32 0 M32 0 C137.68 -0.67, 242.84 0.56, 398 0 M32 0 C169.39 2.18, 306.16 2.48, 398 0 M398 0 C418.74 -1.72, 431.83 9.66, 430 32 M398 0 C419.78 0.89, 428.1 12.76, 430 32 M430 32 C432.44 91.8, 431.24 148.58, 430 199.33 M430 32 C430.26 93.52, 429.59 156.59, 430 199.33 M430 199.33 C431.66 221.17, 418.85 232.82, 398 231.33 M430 199.33 C429.87 220.87, 418.93 229.21, 398 231.33 M398 231.33 C303.13 232.12, 208.32 232.78, 32 231.33 M398 231.33 C290.19 231.24, 182.77 231, 32 231.33 M32 231.33 C11.93 230, 1.43 221.32, 0 199.33 M32 231.33 C10.45 232.9, -2.29 222.49, 0 199.33 M0 199.33 C-0.91 143.25, -1.89 84.81, 0 32 M0 199.33 C0.93 158.27, -0.16 118.51, 0 32 M0 32 C-1.8 9.51, 9.61 -1.55, 32 0 M0 32 C-0.12 8.5, 11.4 -0.43, 32 0" stroke="#8e30eb" stroke-width="1" fill="none"></path></g><g transform="translate(41.3333740234375 38.96579545732584) rotate(0 67.95198059082031 50)"><text x="0" y="0" font-family="Virgil, Segoe UI Emoji" font-size="16px" fill="#8e30eb" text-anchor="start" style="white-space: pre;" direction="ltr" dominant-baseline="text-before-edge"># My TODO List</text><text x="0" y="20" font-family="Virgil, Segoe UI Emoji" font-size="16px" fill="#8e30eb" text-anchor="start" style="white-space: pre;" direction="ltr" dominant-baseline="text-before-edge"></text><text x="0" y="40" font-family="Virgil, Segoe UI Emoji" font-size="16px" fill="#8e30eb" text-anchor="start" style="white-space: pre;" direction="ltr" dominant-baseline="text-before-edge">- buy groceries</text><text x="0" y="60" font-family="Virgil, Segoe UI Emoji" font-size="16px" fill="#8e30eb" text-anchor="start" style="white-space: pre;" direction="ltr" dominant-baseline="text-before-edge">- call mom</text><text x="0" y="80" font-family="Virgil, Segoe UI Emoji" font-size="16px" fill="#8e30eb" text-anchor="start" style="white-space: pre;" direction="ltr" dominant-baseline="text-before-edge">- chill</text></g><g stroke-linecap="round"><g transform="translate(221.33331298828125 11.632467210255527) rotate(0 -0.8909425204226409 114.5028230876103)"><path d="M-0.12 -0.38 C-0.29 37.68, 0.03 190.78, -0.05 229.18 M-1.65 -1.63 C-2.06 36.55, -1.02 192.36, -1.02 230.64" stroke="#8e30eb" stroke-width="1" fill="none"></path></g></g><mask></mask><g transform="translate(232 29.46579545732584) rotate(0 100.7579574584961 17.5)"><text x="0" y="0" font-family="Virgil, Segoe UI Emoji" font-size="28px" fill="#8e30eb" text-anchor="start" style="white-space: pre;" direction="ltr" dominant-baseline="text-before-edge">My TODO List</text></g><g transform="translate(247.333251953125 77.46579545732584) rotate(0 57.119964599609375 30)"><text x="0" y="0" font-family="Virgil, Segoe UI Emoji" font-size="16px" fill="#8e30eb" text-anchor="start" style="white-space: pre;" direction="ltr" dominant-baseline="text-before-edge">• buy groceries</text><text x="0" y="20" font-family="Virgil, Segoe UI Emoji" font-size="16px" fill="#8e30eb" text-anchor="start" style="white-space: pre;" direction="ltr" dominant-baseline="text-before-edge">• call mom</text><text x="0" y="40" font-family="Virgil, Segoe UI Emoji" font-size="16px" fill="#8e30eb" text-anchor="start" style="white-space: pre;" direction="ltr" dominant-baseline="text-before-edge">• chill</text></g></svg>